<svg xmlns="http://www.w3.org/2000/svg" version="1.1" xmlns:xlink="http://www.w3.org/1999/xlink" xmlns:svgjs="http://svgjs.com/svgjs" width="1440" height="560" preserveAspectRatio="none" viewBox="0 0 1440 560"><g mask="url(&quot;#SvgjsMask1094&quot;)" fill="none"><rect width="1440" height="560" x="0" y="0" fill="rgba(32, 130, 216, 1)"></rect><path d="M -164.04072400267978,403 C -20.04,375.8 267.96,269.2 555.9592759973202,267 C 843.96,264.8 987.96,390 1275.9592759973202,392 C 1563.96,394 1963.15,287.2 1995.9592759973202,277 C 2028.77,266.8 1551.19,328.2 1440,341" stroke="rgba(20, 20, 20, 0.97)" stroke-width="2"></path><path d="M -909.0885548666066,348 C -765.09,332.8 -477.09,281 -189.08855486660664,272 C 98.91,263 242.91,309.4 530.9114451333934,303 C 818.91,296.6 1069.09,242.6 1250.9114451333933,240 C 1432.73,237.4 1402.18,280 1440,290" stroke="rgba(20, 20, 20, 0.97)" stroke-width="2"></path><path d="M -14.74198203793901,211 C 129.26,248.4 417.26,385.2 705.258017962061,398 C 993.26,410.8 1137.26,279.6 1425.2580179620609,275 C 1713.26,270.4 2142.31,374.2 2145.258017962061,375 C 2148.21,375.8 1581.05,298.2 1440,279" stroke="rgba(20, 20, 20, 0.97)" stroke-width="2"></path></g><defs><mask id="SvgjsMask1094"><rect width="1440" height="560" fill="#ffffff"></rect></mask></defs></svg>